# xmcd CD database file
#
# Track frame offsets:
#	150
#	13513
#	26468
#	43161
#	57762
#	71066
#	81339
#	92026
#	106735
#	123924
#	137113
#	156991
#	166279
#	177515
#	194768
#	204950
#	223547
#	240315
#
# Disc length: 3310 seconds
#
# Revision: 2
# Processed by: cddbd v1.5.2PL0 Copyright (c) Steve Scherf et al.
# Submitted via: CDex 1.97
#
DISCID=f70cec12
DTITLE=John Denver - John Denver - The Real John Denver [CD3]
DYEAR=2013
DGENRE=Country
TTITLE0=Perhaps Love
TTITLE1=Love Again
TTITLE2=Like A Sad Song
TTITLE3=Everyday
TTITLE4=For Baby (For Bobbie)
TTITLE5=Geandma's Feather Bed
TTITLE6=Aspenglow
TTITLE7=It Makes Me Giggle
TTITLE8=Bet On The Blues
TTITLE9=This Old Guitar
TTITLE10=Hold On Tight
TTITLE11=When I'm Sixty Four
TTITLE12=Follow Me
TTITLE13=I Wish I Knew How It Would Feel To Be Free
TTITLE14=Yesterday
TTITLE15=Amsterdam
TTITLE16=She Won't Let Me Fly Away
TTITLE17=When I Was A Cowboy
EXTD=YEAR: 2013
EXTT0=
EXTT1=
EXTT2=
EXTT3=
EXTT4=
EXTT5=
EXTT6=
EXTT7=
EXTT8=
EXTT9=
EXTT10=
EXTT11=
EXTT12=
EXTT13=
EXTT14=
EXTT15=
EXTT16=
EXTT17=
PLAYORDER=
